<?xml version="1.0" encoding="iso-8859-1"?>
<!-- Generator: Adobe Illustrator 22.0.1, SVG Export Plug-In . SVG Version: 6.00 Build 0)  -->
<svg version="1.1" xmlns="http://www.w3.org/2000/svg" xmlns:xlink="http://www.w3.org/1999/xlink" x="0px" y="0px"
	 viewBox="0 0 512 512" style="enable-background:new 0 0 512 512;" xml:space="preserve">
<g id="BULINE">
	<circle id="XMLID_5185_" style="fill:#273277;" cx="256" cy="256" r="256"/>
</g>
<g id="Icons">
	<g id="XMLID_6707_">
		<path id="XMLID_3105_" style="fill:#222B5A;" d="M512,256c0,71.94-29.68,136.95-77.45,183.46C388.43,484.34,325.44,512,256,512
			c-34.91,0-68.18-6.99-98.5-19.64c-32.26-13.46-61.18-33.33-85.16-58.02C27.57,388.24,0,325.34,0,256
			c0-44.11,11.16-85.61,30.81-121.84c13.1,1.57,32.34,7.67,50.81,27.51c18,19.33,18,52.07,53,41.7c0,0,32.82-14.54,61.41,13.05
			c0,0,6.56,3.94,17.28,9.24c18.39,9.08,49,22.15,79.66,26.17h0.01c2.01,0.26,4.03,0.49,6.04,0.66c5.99,0.55,11.95,0.72,17.8,0.4
			c1.59-0.09,3.17-0.21,4.73-0.36c10.33-1.04,20.19-3.7,29.07-8.53c0,0,55-31.72,104-2.86c0,0,33.24,22.71,57.3,8.13
			C511.97,251.51,512,253.75,512,256z"/>
		<path id="XMLID_2798_" style="fill:#78C478;" d="M324.995,35.639l-0.54,68.427l-137.192,0.013V72.224c0-0.013,0-0.013,0-0.013
			V35.411c0-1.373,0.292-2.72,0.839-3.966c1.246-2.873,3.839-5.263,7.284-6.559l21.394-8.059
			c23.402-8.797,50.084-9.114,73.766-0.877l25.983,9.038c2.771,0.966,5.021,2.644,6.483,4.716
			C324.283,31.457,324.995,33.504,324.995,35.639z"/>
		<path id="XMLID_2973_" style="fill:#8ADB8C;" d="M434.55,349.63v89.83C388.43,484.34,325.44,512,256,512
			c-34.91,0-68.18-6.99-98.5-19.64c-32.26-13.46-61.18-33.33-85.16-58.02v-84.71c0,0,7.7-48.11,52.92-64.46
			c6.34-2.3,12.54-4.94,18.47-7.78c2.13-1.02,4.23-2.06,6.29-3.11c12.12-6.23,23.01-13.13,31.94-19.38
			c4.83-3.36,9.69-6.54,14.09-9.31c9.73-6.13,17.26-10.31,17.26-10.31c-0.03,0.89-0.03,1.83,0,2.81
			c0.26,7.33,2.52,17.25,10.77,26.68c0.24,0.28,0.49,0.55,0.74,0.82c0.41,0.44,0.83,0.88,1.25,1.29c0.23,0.23,0.46,0.45,0.69,0.66
			c0.23,0.23,0.46,0.44,0.7,0.65c0.23,0.21,0.47,0.42,0.71,0.62c0.24,0.21,0.48,0.41,0.73,0.61c0.24,0.2,0.48,0.39,0.73,0.58
			c0.99,0.77,2.01,1.48,3.05,2.13c0.22,0.15,0.45,0.29,0.68,0.42c0.82,0.5,1.65,0.96,2.5,1.38c15.36,7.76,34.83,4.7,46.94-9.16
			c3.77-4.31,7.31-8.72,10.17-12.94h0.01c4.24-6.25,7-12.08,6.86-16.54c0,0,0.02,0.01,0.05,0.05c0.6,0.55,6.92,6.26,17.21,13.92
			c1.41,1.06,2.9,2.15,4.45,3.27c2.36,1.69,4.87,3.44,7.54,5.23c10.83,7.3,24.02,15.18,38.55,21.72c0.13,0.06,0.26,0.12,0.41,0.17
			c4.41,1.99,8.95,3.84,13.58,5.52C426.84,301.52,434.55,349.63,434.55,349.63z"/>
		<path id="XMLID_2969_" style="fill:#78C478;" d="M235.86,273.93c-0.23,0.12-0.44,0.23-0.67,0.35c-1.98,1.01-3.99,2.01-6.05,2.99
			c-0.08,0.04-0.17,0.08-0.25,0.12c-5.92,2.84-12.12,5.48-18.47,7.78c-0.1,0.04-0.2,0.07-0.3,0.11
			c-44.94,16.46-52.62,64.35-52.62,64.35v142.73c-32.26-13.46-61.18-33.33-85.16-58.02v-84.71c0,0,7.7-48.11,52.92-64.46
			c6.34-2.3,12.54-4.94,18.47-7.78c2.13-1.02,4.23-2.06,6.29-3.11c12.12-6.23,23.01-13.13,31.94-19.38
			c4.83-3.36,9.69-6.54,14.09-9.31c9.73-6.13,17.26-10.31,17.26-10.31c-0.03,0.89-0.03,1.83,0,2.81
			c0.26,7.33,2.52,17.25,10.77,26.68c0.24,0.28,0.49,0.55,0.74,0.82c0.41,0.44,0.83,0.88,1.25,1.29c0.23,0.22,0.46,0.44,0.69,0.66
			c0.23,0.22,0.47,0.44,0.7,0.65c0.24,0.21,0.47,0.42,0.71,0.62c0.24,0.21,0.48,0.41,0.73,0.61c0.24,0.19,0.48,0.39,0.73,0.58
			c0.99,0.77,2.01,1.48,3.05,2.13c0.22,0.14,0.45,0.28,0.68,0.42C234.18,273.05,235.01,273.51,235.86,273.93z"/>
		<path id="XMLID_2761_" style="fill:#9CE3A2;" d="M317.101,249.261c-1.475,32.148-27.991,57.75-60.508,57.75
			c-33.445,0-60.559-27.114-60.559-60.559c0-0.292,0-0.572,0.013-0.864c9.737-6.127,17.263-10.309,17.263-10.309
			c-0.254,7.462,1.411,18.788,10.767,29.491c15.546,17.784,43.182,17.784,58.728,0c9.356-10.703,17.275-22.017,17.034-29.479
			C299.839,235.29,306.271,241.201,317.101,249.261z"/>
		<path id="XMLID_2760_" style="fill:#CBA17E;" d="M256.599,287.09L256.599,287.09c-23.91,0-43.294-19.383-43.294-43.293V195.68
			h86.587v48.116C299.893,267.707,280.509,287.09,256.599,287.09z"/>
		<path id="XMLID_2759_" style="fill:#E8B88F;" d="M337.827,133.507c-0.47,3.585-1.767,13.182-3.419,19.322
			c0,0-1.335,28.907-15.61,27.445c-0.343,1.068-1.042,3.14-2.161,5.886c-2.466,6.089-6.928,15.483-13.83,24.419
			c-10.004,12.928-25.118,24.928-46.741,24.686c-21.61,0.242-36.724-11.758-46.716-24.686c-6.915-8.936-11.377-18.33-13.843-24.419
			c-1.653-4.093-2.415-6.699-2.415-6.699c1.538-11.263-4.614-53.25-4.614-53.25c-0.877-7.246-1.042-14.885-0.801-22.309
			c0.381-11.835,1.805-23.085,3.089-31.22c0-0.013,0-0.013,0.013-0.025c0.025-0.127,0.038-0.191,0.038-0.191l5.377-7.169
			c1.335-1.78,3.229-3.076,5.377-3.648c58.805-15.559,97.143-3.496,106.385,0.025c1.36,0.521,2.593,1.322,3.61,2.377l10.068,10.36
			l0.013,0.076c1.208,7.958,2.466,18.458,2.809,29.453v0.013c0.013,0.038,0.013,0.076,0,0.114c0.242,7.36,0.064,14.949-0.801,22.144
			c0,0-0.216,1.513-0.559,4.017c3.737-2.492,10.703-5.936,14.11,0.102C337.738,131.295,337.967,132.414,337.827,133.507z"/>
		<path id="XMLID_2758_" style="fill:#D2A886;" d="M275.334,231.744c-5.86,2.301-12.432,3.61-19.729,3.521
			c-43.309,0.483-60.508-48.089-62.733-54.991c-14.275,1.449-15.61-27.432-15.61-27.432c-1.64-6.153-2.949-15.75-3.407-19.335
			c-0.14-1.093,0.064-2.212,0.61-3.178c3.407-6.038,10.373-2.593,14.11-0.102c-0.343-2.517-0.572-4.017-0.572-4.017
			c-0.877-7.246-1.042-14.885-0.801-22.309c0.381-11.873,1.818-23.161,3.102-31.284c0.013-0.038,0.013-0.076,0.025-0.102
			c0.013-0.038,0.013-0.051,0.013-0.051l5.377-7.169c1.335-1.78,3.229-3.076,5.377-3.648c11.86-3.14,22.894-5.148,33.013-6.33
			c-0.788,1.525-1.475,3.14-2.047,4.856c0,0-0.737,3.292-1.678,8.695c-2.186,12.559-5.428,36.584-2.924,57.343
			c0,0,3.458,23.644,4.538,40.195c1.017,15.686,6.267,30.89,15.75,43.423C254.424,218.664,263.474,227.168,275.334,231.744z"/>
		<path id="XMLID_2755_" style="fill:#9CE3A2;" d="M324.995,74.359l-0.54,29.707l-12.489-20.326
			c-0.102-0.165-0.203-0.318-0.318-0.47c-4.068-6.089-10.284-10.436-17.428-12.102c-23.847-5.53-46.423-4.576-62.834-2.301
			c-4.958,0.674-9.343,1.487-13.03,2.263c-7.36,1.538-13.767,5.936-17.936,12.14c-0.33,0.483-0.648,0.979-0.941,1.487
			l-11.275,19.144l-0.102,0.178c-0.254-0.483-0.534-1.119-0.839-1.881V72.224l8.491-7.398c1.335-1.78,4.449-3.152,6.597-3.725
			c11.86-3.14,22.64-4.602,32.758-5.784c40.067-4.716,65.999,3.547,73.372,6.356c1.36,0.521,2.593,1.322,3.61,2.377L324.995,74.359z
			"/>
		<path id="XMLID_2754_" style="fill:#D4DAF9;" d="M360.679,374h-58.854c-6.115,0-11.073-4.958-11.073-11.073v-15
			c0-6.115,4.958-11.073,11.073-11.073h58.854c6.115,0,11.073,4.958,11.073,11.073v15C371.752,369.042,366.794,374,360.679,374z"/>
		<path id="XMLID_6551_" style="fill:none;stroke:#CB9B74;stroke-width:7;stroke-linecap:round;stroke-miterlimit:10;" d="
			M235.278,118.469c-8.187-8.187-21.461-8.187-29.648,0"/>
		<circle id="XMLID_6550_" style="fill:#CB9B74;" cx="220.454" cy="126.774" r="6.057"/>
		<path id="XMLID_6549_" style="fill:none;stroke:#CB9B74;stroke-width:7;stroke-linecap:round;stroke-miterlimit:10;" d="
			M307.568,118.469c-8.187-8.187-21.461-8.187-29.648,0"/>
		<circle id="XMLID_6548_" style="fill:#CB9B74;" cx="292.744" cy="126.774" r="6.057"/>
		
			<line id="XMLID_6568_" style="fill:none;stroke:#CB9B74;stroke-width:7;stroke-linecap:round;stroke-miterlimit:10;" x1="248" y1="120.358" x2="240" y2="151.642"/>
		<path id="XMLID_2757_" style="fill:#8ADB8C;" d="M326.678,125.319c-2.709-1.689-6.275-0.859-7.965,1.85l-10.125,16.252h-26.13
			c-5.88-5.79-15.273-9.54-25.859-9.54c-10.585,0-19.979,3.749-25.859,9.54h-27.127c-4.186,0-7.574,3.388-7.574,7.574v35.165
			c2.463,6.094,6.927,15.484,13.842,24.422c31.141,10.928,62.304,10.928,93.456,0c6.903-8.939,11.367-18.328,13.83-24.422V151.52
			l11.362-18.237C330.217,130.573,329.388,127.007,326.678,125.319z"/>
		<path id="XMLID_2756_" style="fill:#78C478;" d="M256.597,133.881c-10.581,0-19.982,3.747-25.856,9.54h-26.423l-9.667-15.976
			c-1.563-2.584-4.848-3.747-7.569-2.436c-3.12,1.504-4.203,5.318-2.453,8.21l10.958,18.11c0.138,0.228,0.289,0.442,0.452,0.643
			v34.188c2.463,6.094,6.927,15.484,13.842,24.422c5.608,1.966,11.228,3.585,16.836,4.834c-6.302-8.499-10.419-17.218-12.755-22.988
			v-35.165c0-4.183,3.391-7.574,7.574-7.574h12.776c7.434,0,14.829-1.619,21.401-5.094c5.294-2.799,11.792-4.446,18.807-4.446
			c1.434,0,2.845,0.069,4.221,0.208C272.96,136.344,265.178,133.881,256.597,133.881z"/>
	</g>
</g>
</svg>
