<?xml version="1.0" encoding="utf-8"?>
<!-- Generator: Adobe Illustrator 24.0.0, SVG Export Plug-In . SVG Version: 6.00 Build 0)  -->
<svg version="1.1" id="Layer_1" xmlns="http://www.w3.org/2000/svg" xmlns:xlink="http://www.w3.org/1999/xlink" x="0px" y="0px"
	 viewBox="0 0 256 256" style="enable-background:new 0 0 256 256;" xml:space="preserve">
<style type="text/css">
	.st0{fill:#EF6D7A;}
	.st1{fill:#3A312A;}
	.st2{fill:#87796F;}
	.st3{fill:#FCE8CB;}
	.st4{fill:#D5DE58;}
	.st5{fill:#D34E5C;}
	.st6{fill:#695B51;}
</style>
<g>
	<g>
		<g>
			<path class="st0" d="M235.7,89.1L165.6,19c-4-4-10.6-4-14.6,0l-19.7,19.7l-10,10l-76.6,76.6c-4,4-4,10.6,0,14.6l70.1,70.1
				c4,4,10.6,4,14.6,0l106.4-106.4C239.7,99.7,239.7,93.1,235.7,89.1z"/>
		</g>
	</g>
	<g>
		<g>
			<path class="st1" d="M236.8,88.1L166.7,18c-2.2-2.2-5.2-3.5-8.4-3.5s-6.1,1.2-8.4,3.5l-19.7,19.7c-0.6,0.6-0.6,1.5,0,2.1
				c0.6,0.6,1.5,0.6,2.1,0l19.7-19.7c1.7-1.7,3.9-2.6,6.2-2.6s4.6,0.9,6.2,2.6l70.1,70.1c1.7,1.7,2.6,3.9,2.6,6.2s-0.9,4.6-2.6,6.2
				L128.3,209c-3.4,3.4-9,3.4-12.5,0l-70.1-70.1c-3.4-3.4-3.4-9,0-12.5l76.6-76.6c0.6-0.6,0.6-1.5,0-2.1c-0.6-0.6-1.5-0.6-2.1,0
				l-76.6,76.6c-4.6,4.6-4.6,12.1,0,16.7l70.1,70.1c2.3,2.3,5.3,3.5,8.4,3.5c3,0,6.1-1.2,8.4-3.5l106.4-106.4
				C241.4,100.2,241.4,92.7,236.8,88.1z"/>
		</g>
	</g>
	<g>
		<g>
			
				<rect x="35.5" y="84.2" transform="matrix(0.7071 -0.7071 0.7071 0.7071 -32.0431 113.5751)" class="st2" width="171.1" height="22.5"/>
		</g>
	</g>
	<g>
		<g>
			<path class="st1" d="M190.6,41.9L174.7,26c-0.6-0.6-1.5-0.6-2.1,0l-121,121c-0.6,0.6-0.6,1.5,0,2.1L67.5,165
				c0.3,0.3,0.7,0.4,1.1,0.4c0.4,0,0.8-0.2,1.1-0.4l121-121C191.2,43.4,191.2,42.4,190.6,41.9z M68.5,161.8L54.8,148L173.6,29.1
				l13.8,13.8L68.5,161.8z"/>
		</g>
	</g>
	<g>
		<g>
			<path class="st3" d="M178.5,120.2H28c-5.7,0-10.3,4.6-10.3,10.3v51.2v14.2v33.7c0,5.7,4.6,10.3,10.3,10.3h150.5
				c5.7,0,10.3-4.6,10.3-10.3v-99.1C188.8,124.8,184.2,120.2,178.5,120.2z"/>
		</g>
	</g>
	<g>
		<g>
			<path class="st1" d="M178.5,118.7H28c-6.5,0-11.8,5.3-11.8,11.8v51.2c0,0.8,0.7,1.5,1.5,1.5s1.5-0.7,1.5-1.5v-51.2
				c0-4.9,4-8.8,8.8-8.8h150.5c4.9,0,8.8,4,8.8,8.8v99.1c0,4.9-4,8.8-8.8,8.8H28c-4.9,0-8.8-4-8.8-8.8v-33.7c0-0.8-0.7-1.5-1.5-1.5
				s-1.5,0.7-1.5,1.5v33.7c0,6.5,5.3,11.8,11.8,11.8h150.5c6.5,0,11.8-5.3,11.8-11.8v-99.1C190.3,124,185,118.7,178.5,118.7z"/>
		</g>
	</g>
	<g>
		<g>
			<path class="st4" d="M48.2,26.3c-1,11.6-13,13.4-13,13.4c10.3,0.5,12.9,14.1,12.9,14.1c0.2-9.7,13.3-14.2,13.3-14.2
				C51.6,39,48.2,26.3,48.2,26.3z"/>
		</g>
	</g>
	<g>
		<g>
			<path class="st1" d="M61.5,38.1c-8.6-0.5-11.8-12-11.9-12.1c-0.2-0.7-0.9-1.2-1.6-1.1c-0.7,0.1-1.3,0.6-1.4,1.4
				c-0.9,10.2-11.3,12-11.8,12c-0.8,0.1-1.3,0.8-1.3,1.6c0,0.8,0.7,1.4,1.4,1.4c9,0.4,11.5,12.7,11.5,12.8c0.1,0.7,0.8,1.2,1.5,1.2
				c0,0,0.1,0,0.1,0c0.8-0.1,1.4-0.7,1.4-1.5C49.8,45.3,61.8,41,61.9,41c0.7-0.2,1.1-0.9,1-1.6C62.8,38.7,62.2,38.1,61.5,38.1z
				 M47.9,48.4c-1.4-3.1-3.7-6.9-7.6-8.9c2.9-1.4,6.4-3.9,8.2-8.3c1.6,3.1,4.2,6.9,8.3,8.7C53.9,41.6,49.9,44.4,47.9,48.4z"/>
		</g>
	</g>
	<g>
		<g>
			<path class="st4" d="M26.5,43.3c-0.7,8.2-9.2,9.5-9.2,9.5c7.3,0.3,9.1,9.9,9.1,9.9c0.2-6.8,9.4-10,9.4-10
				C28.9,52.3,26.5,43.3,26.5,43.3z"/>
		</g>
	</g>
	<g>
		<g>
			<path class="st1" d="M35.9,51.2c-5.8-0.3-8-8.2-8-8.3c-0.2-0.7-0.9-1.2-1.6-1.1c-0.7,0.1-1.3,0.6-1.4,1.4
				c-0.6,6.9-7.6,8.1-7.9,8.1c-0.8,0.1-1.3,0.8-1.3,1.6c0,0.8,0.7,1.4,1.4,1.4c6,0.3,7.7,8.6,7.7,8.7c0.1,0.7,0.8,1.2,1.5,1.2
				c0,0,0.1,0,0.1,0c0.8-0.1,1.4-0.7,1.4-1.5c0.1-5.7,8.3-8.6,8.4-8.7c0.7-0.2,1.1-0.9,1-1.6C37.2,51.8,36.6,51.2,35.9,51.2z
				 M26.3,58c-0.9-1.9-2.3-3.9-4.4-5.3c1.9-1,3.7-2.6,4.9-4.9c1.1,1.9,2.7,4,4.9,5.2C29.8,54.1,27.7,55.7,26.3,58z"/>
		</g>
	</g>
	<g>
		<g>
			<path class="st4" d="M26.4,16.7c-0.7,8.2-9.2,9.5-9.2,9.5c7.3,0.3,9.2,9.9,9.2,9.9c0.1-6.8,9.4-10.1,9.4-10.1
				C28.9,25.6,26.4,16.7,26.4,16.7z"/>
		</g>
	</g>
	<g>
		<g>
			<path class="st1" d="M35.9,24.5c-5.7-0.3-8-8.1-8-8.2c-0.2-0.7-0.9-1.2-1.6-1.1c-0.7,0.1-1.3,0.6-1.4,1.4
				c-0.6,6.9-7.6,8.1-7.9,8.1c-0.8,0.1-1.3,0.8-1.3,1.6c0,0.8,0.7,1.4,1.4,1.4c6,0.3,7.8,8.6,7.8,8.7c0.1,0.7,0.8,1.2,1.5,1.2
				c0,0,0.1,0,0.1,0c0.8-0.1,1.4-0.7,1.4-1.5c0.1-5.7,8.3-8.7,8.4-8.7c0.7-0.2,1.1-0.9,1-1.6C37.2,25.1,36.6,24.5,35.9,24.5z
				 M26.4,31.3c-0.9-1.9-2.4-3.9-4.5-5.3c1.9-1,3.7-2.6,4.9-4.9c1.1,1.9,2.7,3.9,5,5.2C29.9,27.4,27.7,29.1,26.4,31.3z"/>
		</g>
	</g>
	<g>
		<g>
			<path class="st1" d="M84,166.6H37.7c-0.8,0-1.5,0.7-1.5,1.5s0.7,1.5,1.5,1.5H84c0.8,0,1.5-0.7,1.5-1.5S84.8,166.6,84,166.6z"/>
		</g>
	</g>
	<g>
		<g>
			<path class="st1" d="M169.7,218.5h-132c-0.8,0-1.5,0.7-1.5,1.5s0.7,1.5,1.5,1.5h132c0.8,0,1.5-0.7,1.5-1.5
				S170.5,218.5,169.7,218.5z"/>
		</g>
	</g>
	<g>
		<g>
			<path class="st1" d="M84,145.8H37.7c-0.8,0-1.5,0.7-1.5,1.5s0.7,1.5,1.5,1.5H84c0.8,0,1.5-0.7,1.5-1.5S84.8,145.8,84,145.8z"/>
		</g>
	</g>
	<g>
		<g>
			<path class="st5" d="M164.6,20.1c-1.7-1.7-3.9-2.6-6.2-2.6c-2.4,0-4.6,0.9-6.2,2.6l-2.7,2.7L162.6,36l8.9-8.9L164.6,20.1z"/>
		</g>
	</g>
	<g>
		<g>
			<path class="st5" d="M234.7,90.2L189.5,45l-8.9,8.9l35.1,35.1c4,4,4,10.6,0,14.6l-25.5,25.5c0.1,0.4,0.1,0.9,0.1,1.4V147
				l44.3-44.3c1.7-1.7,2.6-3.9,2.6-6.2C237.2,94.1,236.3,91.8,234.7,90.2z"/>
		</g>
	</g>
	<g>
		<g>
			
				<rect x="169.7" y="30.8" transform="matrix(0.7067 -0.7075 0.7075 0.7067 22.9753 136.4284)" class="st6" width="12.6" height="19.5"/>
		</g>
	</g>
</g>
</svg>
