<svg xmlns="http://www.w3.org/2000/svg" viewBox="0 0 512 512"><title>Exercise002</title><g id="artwork"><g id="_20_exercise-2" data-name="20_exercise-2"><path d="M49.47,313.52S32,318.63,22.19,325.14c-9.56,6.34-2.78,23.88,3.53,28.58,8.87,6.62,16.45,25.75,16.45,25.75H73.43s-1.8-7.2-15.8-9.2l-5.54-15.08s-.17-16.5,9.06-19.08Z" style="fill:#dcd3d4"/><path d="M412.64,377.62c-4.39-3.19-9.12-6.41-14.21-9.6-5.71-3.59-9.43-8.59-14.71-11.36l-20.17-74.52-.16-15.1a86.37,86.37,0,0,1-53.58,6.44L129.78,315,73.43,329.2l-3.28,13.28,2.24,9.45L278.67,304l0,.2,32.41-7.29a59,59,0,0,0,34.08,1.59l19.48,63.85a26.55,26.55,0,0,0,1.13,12,12.51,12.51,0,0,0,11.88,8.3H411A2.8,2.8,0,0,0,412.64,377.62Z" style="fill:#dcd3d4"/><path d="M355.06,184.09S355,168.51,380.21,161l59.59-25.07s39.54-12.31,48.77,27.26c0,0,6.76,25.1-21.11,34.41,0,0-30.13,19.11-43.57,3.63S376,180.13,355.06,184.09Z" style="fill:#4966a2"/><path d="M477,189.73l-6.54-12.86c-7.61-15-25.51-21.11-40-13.75l-5.82,3a18.48,18.48,0,0,0-8.1,8.12h0s-15.27,11.52-27.6,13.86c0,0,13.92,11.33,11,27.16l22.78-15a25.49,25.49,0,0,0,28.52,4l25.31-12.87A1.17,1.17,0,0,0,477,189.73Z" style="fill:#f3b5af"/><polygon points="265.27 225.04 294.92 213.44 309.81 273.48 277.4 280.77 265.27 225.04" style="fill:#f3b5af"/><path d="M67,304.3s-16.38,7.14-27.27,11.61S38,342.28,43.22,344.5s17.91,33.74,17.91,33.74H90.92s-1.79-15.19-15.79-17.19L69.59,346s-.17-16.5,9-19.08Z" style="fill:#f3b5af"/><polygon points="66.97 304.3 78.64 326.88 97.39 322.31 84.46 298.21 66.97 304.3" style="fill:#fff"/><path d="M357.81,232.32A20,20,0,0,1,356,216.19C358.79,207,370,189.28,395.79,196c0,0,9.34,9.05,0,58.05l-1.71,25.38L403,351.21c5.28,2.77,10.82,5.92,16.53,9.5,5.09,3.19,9.82,6.42,14.21,9.61a2.8,2.8,0,0,1-1.66,5.06H398.8a12.51,12.51,0,0,1-11.88-8.31,26.49,26.49,0,0,1-1.13-12l-22.24-72.91-.43-40.9Z" style="fill:#f3b5af"/><path d="M294.92,213.44l14.89,60c5.64,2,19.72,6,36,1.06a56,56,0,0,0,17.53-9l-.25-24.35s-8.3-10.45-8.06-20.49,14.57-28.26,40.73-27c0,0-9-16-40.73-6.88C337.42,191.51,303.74,207.46,294.92,213.44Z" style="fill:#ffeef0"/><path d="M364.8,262.56a56,56,0,0,1-17.53,9,58.7,58.7,0,0,1-36-1.06l-1.43-5.77c21.56-1.42,40.1-14.88,50-34.23a46.57,46.57,0,0,0,4.76,7.76Z" style="fill:#dcd3d4"/><path d="M94.73,322.93l184.68-42.84q-6.06-27.85-12.13-55.73a75.2,75.2,0,0,0-31.78,3.85c-14.8,5.17-27.4,18.38-32.38,23.49l-80.23,30.35L82.8,298.7Z" style="fill:#4966a2"/><path d="M279.82,278.68,95.14,321.51l-4.22-8.58C209,289.84,253.09,253.76,269.73,232.29Q274.77,255.48,279.82,278.68Z" style="fill:#3d5890"/><rect x="244.12" y="372.24" width="27.78" height="12" style="fill:#142546"/><path d="M494.51,165.91c-.63-12.53-6.82-24.61-15.77-30.78-21.17-14.59-46.21-3.63-54.44,0l-55.9,24.47c-.82.35-1.64.71-2.47,1a28.33,28.33,0,0,0-17.76,22.08,87.52,87.52,0,0,0-11.86,5c-14.2,7.34-28.9,14.13-43.67,20.18-7.07,2.9-10.74,4.59-13.42,5.83-4.12,1.89-5.63,2.59-14.58,5.25a80.35,80.35,0,0,0-33.12,4.25c-15.28,5.33-28,18-33.77,24l-79,29.88L55.81,302.65l-2.1,1.08a21.88,21.88,0,0,1-6.78,2.18,21.9,21.9,0,0,0-14,34.53l7.57,10.47,11.32,21.33H19v12h208.6v-12H95.45c-2-5.94-6.6-13.7-15.07-15.75l-4.6-11.25,1.86-11.73a.81.81,0,0,1,.57-.38l206.31-47.85v0l20.34-4.75a50.7,50.7,0,0,1,12.05-1.32,32.92,32.92,0,0,1,4.63.35A60.7,60.7,0,0,0,357.46,274l.1,9,17.87,63.91a98.07,98.07,0,0,1,2.37,10.72l.92,5.64a23,23,0,0,0,3.28,9H287.23v12H477.14v-12H444.21a9.32,9.32,0,0,0-5.37-6.92l-28.5-14-.13-.06c-1.63-.75-2.56-5-2.51-7.63v-.44l-7.6-63.91L404.88,220l17.48-12.59a32,32,0,0,0,17.67,5.4,30.61,30.61,0,0,0,13.91-3.33l25.31-12.87h0a7,7,0,0,0,1.42-1l1.83-1.11.39-.24.35-.3C491.08,187.37,495.09,177.39,494.51,165.91ZM75.24,307.72l6-2.42,6.34,13.35-6.4,1.48ZM76.06,368c3,0,5,2.08,6.3,4.27H67.87a4.17,4.17,0,0,1-3.7-2.23L50.66,344.55l-8.08-11.18a9.9,9.9,0,0,1,6.33-15.63,33.77,33.77,0,0,0,10.46-3.42l1.24-.67,3.49-1.41,5.74,12.09A12.7,12.7,0,0,0,66,330.57L63.4,346.68l8.69,21.24Zm23.44-52.1-7.17-15.08,30.74-12.48,81.41-30.79,1.33-1.37c5-5.1,16.58-17,29.66-21.6a68.29,68.29,0,0,1,24.9-3.81l9.91,45.52ZM282,273.54l-9.66-44.36a76.7,76.7,0,0,0,11.94-4.57c1.61-.74,3.6-1.66,6.53-2.92l11.68,47.07-.33.07Zm123.14,88.62,18.55,9.08h-18l-2.69,0-1.19,0h-.1a11.26,11.26,0,0,1-11.1-9.73l-1-5.85a112,112,0,0,0-2.65-12l-17.45-62.39-.45-42.77-2-1.77c-.06-.05-6.13-5.63-6.27-12.8-.08-4.3,2.09-8.59,6.44-12.75L359,202.52c-6.88,6.58-10.3,13.87-10.15,21.66.18,9.11,5.37,16.2,8.32,19.52l.18,17c-1.15.52-2.34,1.1-3.6,1.76a49,49,0,0,1-30.36,5.23,46.19,46.19,0,0,0-6.32-.49c-.86,0-1.73,0-2.59.05L302,217c13.48-5.67,26.86-11.92,39.84-18.62a74.27,74.27,0,0,1,31.61-8.27h.31a19.41,19.41,0,0,1,15.69,7.27,19.19,19.19,0,0,1,4.14,13.57l-5.52,68.6,7.64,64.28C395.7,346.62,396.27,358,405.11,362.16Zm3.4-176.69a26.33,26.33,0,0,0,2.76,9.52,33,33,0,0,0,2.37,3.95l-8.32,6a31.25,31.25,0,0,0-6.5-15.05l-.56-.66A53.14,53.14,0,0,0,408.51,185.47Zm40,13.35c-9.56,4.86-21.46.7-26.54-9.27a13.91,13.91,0,0,1-.35-12,12.56,12.56,0,0,1,5.79-6.09l5.81-2.95A22.39,22.39,0,0,1,443.44,166a24.51,24.51,0,0,1,21.68,13.57l4.35,8.56Zm-20.73-41-5.81,3a24.34,24.34,0,0,0-7.17,5.52h0a42,42,0,0,1-33.62,12.61,31.3,31.3,0,0,0-7.8-.76h-.3a84,84,0,0,0-11.28,1.13,16.93,16.93,0,0,1,8.52-7.47c1-.38,1.94-.79,2.9-1.21l55.9-24.46c18.27-8,32.28-8.36,42.82-1.09,5.9,4.06,10.16,12.71,10.6,21.5a24.35,24.35,0,0,1-3.4,14.17l-3.31-6.53C466.72,156.27,445.17,148.92,427.77,157.77Z" style="fill:#142546"/></g></g></svg>