<svg xmlns="http://www.w3.org/2000/svg" viewBox="0 0 48 48"><defs><style>.cls-1{fill:#505572;}.cls-2{fill:#cc8679;}.cls-3{fill:#8491c1;}.cls-4{fill:#4ac6b7;}.cls-5{fill:#29a892;}.cls-6{fill:#231f20;}</style></defs><title>Loan</title><g id="Loan"><rect class="cls-1" x="2" y="26" width="8" height="20" rx="2" ry="2"/><path class="cls-2" d="M10,29H24a3,3,0,0,1,3,3v0a3,3,0,0,1-3,3H10a0,0,0,0,1,0,0V29a0,0,0,0,1,0,0Z"/><path class="cls-2" d="M10,42l7.1554,3.5777A4,4,0,0,0,18.9443,46h7.8446a4,4,0,0,0,2.2188-.6718L44.6592,34.8939A3.0111,3.0111,0,0,0,46,32.3885h0a3.0111,3.0111,0,0,0-4.5892-2.5644L33,35H10Z"/><circle class="cls-3" cx="6" cy="31" r="1"/><path class="cls-4" d="M26,7H22s-7,4-7,11v3a4,4,0,0,0,4,4H29a4,4,0,0,0,4-4V18C33,11,26,7,26,7Z"/><path class="cls-1" d="M25,20H22a1,1,0,0,1,0-2h3V17H23a2.0023,2.0023,0,0,1-2-2V14a2.0023,2.0023,0,0,1,2-2h3a1,1,0,0,1,0,2H23v1h2a2.0023,2.0023,0,0,1,2,2v1A2.0023,2.0023,0,0,1,25,20Z"/><path class="cls-1" d="M24,14a1,1,0,0,1-1-1V12a1,1,0,0,1,2,0v1A1,1,0,0,1,24,14Z"/><path class="cls-1" d="M24,21a1,1,0,0,1-1-1V19a1,1,0,0,1,2,0v1A1,1,0,0,1,24,21Z"/><path class="cls-5" d="M28,3s-1-1-4-1-4,1-4,1l2,4h4Z"/><circle class="cls-6" cx="6" cy="31" r="1"/><path class="cls-6" d="M44.9458,28.8877a3.9634,3.9634,0,0,0-4.0591.085L32.7168,34H27.4634A3.999,3.999,0,0,0,24,28H11a3.0033,3.0033,0,0,0-3-3H4a3.0033,3.0033,0,0,0-3,3V44a3.0033,3.0033,0,0,0,3,3H8a3.0033,3.0033,0,0,0,3-3v-.3818l5.7085,2.8544A5.0352,5.0352,0,0,0,18.9443,47h7.8447a4.9779,4.9779,0,0,0,2.7734-.84L45.2134,35.7256a4.01,4.01,0,0,0-.2676-6.8379ZM9,29V44a1.001,1.001,0,0,1-1,1H4a1.001,1.001,0,0,1-1-1V28a1.001,1.001,0,0,1,1-1H8a1.001,1.001,0,0,1,1,1Zm35.1045,5.0615L28.4526,44.4961A2.9822,2.9822,0,0,1,26.7891,45H18.9443a3.0181,3.0181,0,0,1-1.3418-.3164L11,41.3818V30H24a2,2,0,0,1,0,4H18.5415a1,1,0,0,0,0,2H33a1.0014,1.0014,0,0,0,.5239-.1484l8.4106-5.1758a2.011,2.011,0,0,1,2.17,3.3857Z"/><path class="cls-6" d="M19,26H29a5.0059,5.0059,0,0,0,5-5V18c0-6.0972-4.7631-10.0126-6.7044-11.3549l1.5989-3.1979A1.0006,1.0006,0,0,0,28.707,2.293C28.4912,2.0771,27.25,1,24,1s-4.4912,1.0771-4.707,1.293a1.0006,1.0006,0,0,0-.1875,1.1543l1.5989,3.1979C18.7631,7.9874,14,11.9028,14,18v3A5.0059,5.0059,0,0,0,19,26ZM24,3a7.6068,7.6068,0,0,1,2.6807.4023L25.3818,6H22.6182L21.3193,3.4023A7.6068,7.6068,0,0,1,24,3ZM16,18c0-5.6611,5.16-9.2793,6.2837-10h3.4341C26.8418,8.7168,32,12.3164,32,18v3a3.0033,3.0033,0,0,1-3,3H19a3.0033,3.0033,0,0,1-3-3Z"/><path class="cls-6" d="M22,18a1,1,0,0,0,0,2h1a1,1,0,0,0,2,0,2.0023,2.0023,0,0,0,2-2V17a2.0023,2.0023,0,0,0-2-2H23V14h3a1,1,0,0,0,0-2H25a1,1,0,0,0-2,0,2.0023,2.0023,0,0,0-2,2v1a2.0023,2.0023,0,0,0,2,2h2v1Z"/></g></svg>