<svg xmlns="http://www.w3.org/2000/svg" viewBox="0 0 64 64"><g id="_11-Flash_sale" data-name="11-Flash sale"><path d="M47,59H17a3.85,3.85,0,0,1,2.91-3.73l4.5-.94A1.993,1.993,0,0,0,26,52.37V47H38v5.37a1.993,1.993,0,0,0,1.59,1.96l4.5.94A3.85,3.85,0,0,1,47,59Z" style="fill:#393d48"/><path d="M63,9V41H1V9A4,4,0,0,1,5,5H59A4,4,0,0,1,63,9Z" style="fill:#fbfbfb"/><path d="M63,41v2a4,4,0,0,1-4,4H5a4,4,0,0,1-4-4V41Z" style="fill:#8394b2"/><path d="M59,45H5a4,4,0,0,1-4-4v2a4,4,0,0,0,4,4H59a4,4,0,0,0,4-4V41A4,4,0,0,1,59,45Z" style="fill:#5c6979"/><path d="M7,14V5H5A4,4,0,0,0,1,9V41H63V36H29A22,22,0,0,1,7,14Z" style="fill:#edf4fa"/><path d="M26.851,57a1,1,0,0,1-.625-1.781l1.579-.694A2,2,0,0,0,29,52.694V51a2,2,0,0,1,2-2h7V47H26v5.37a1.993,1.993,0,0,1-1.59,1.96l-4.5.94A3.85,3.85,0,0,0,17,59H47a3.82,3.82,0,0,0-.575-2Z" style="fill:#2b2b37"/><path d="M46,23c0,1.016-2.16,1.77-2.371,2.72-.217.982,1.4,2.619.987,3.5s-2.689.619-3.291,1.392.163,2.976-.6,3.6-2.676-.637-3.554-.2-1.1,2.751-2.06,2.975c-.928.216-2.123-1.768-3.115-1.768s-2.188,1.984-3.116,1.767c-.958-.223-1.2-2.547-2.059-2.974s-2.8.82-3.555.2.01-2.819-.595-3.595-2.867-.492-3.291-1.392,1.2-2.523.987-3.5C20.16,24.77,18,24.016,18,23s2.16-1.77,2.371-2.72c.217-.982-1.4-2.619-.987-3.5s2.689-.619,3.291-1.392-.163-2.976.6-3.6,2.676.637,3.554.2,1.1-2.751,2.06-2.975c.928-.216,2.123,1.768,3.115,1.768S34.188,8.8,35.116,9.017c.958.223,1.2,2.547,2.059,2.974.879.434,2.8-.82,3.555-.2s-.01,2.819.6,3.6,2.867.492,3.291,1.392-1.2,2.523-.987,3.5C43.84,21.23,46,21.984,46,23Z" style="fill:#cb3541"/><path d="M43,23c0,.8-1.7,1.391-1.863,2.137-.171.772,1.1,2.058.775,2.754s-2.112.486-2.586,1.093.128,2.338-.467,2.825-2.1-.5-2.793-.159-.866,2.162-1.618,2.337c-.729.17-1.669-1.389-2.448-1.389s-1.719,1.559-2.448,1.389c-.753-.175-.939-2-1.618-2.337s-2.2.644-2.793.159.008-2.215-.468-2.825S22.42,28.6,22.087,27.89s.947-1.982.776-2.753C22.7,24.39,21,23.8,21,23s1.7-1.391,1.863-2.137c.171-.772-1.1-2.058-.775-2.754s2.112-.486,2.586-1.093-.128-2.338.467-2.825,2.1.5,2.793.159.866-2.162,1.618-2.337c.729-.17,1.669,1.389,2.448,1.389s1.719-1.559,2.448-1.389c.753.175.939,2,1.618,2.337s2.2-.644,2.793-.159-.008,2.215.468,2.825,2.253.387,2.586,1.094-.947,1.982-.776,2.753C41.3,21.61,43,22.2,43,23Z" style="fill:#ff6161"/><path d="M26.825,11.991a2.08,2.08,0,0,0,.759-1.029c-.595-.517-1.188-1.065-1.7-.946-.556.13-.869.963-1.2,1.726C25.461,11.931,26.317,12.242,26.825,11.991Z" style="fill:#d6e0eb"/><path d="M37.175,34.009a2.474,2.474,0,0,0-.857,1.249,1.69,1.69,0,0,0,1.411-.046,1.619,1.619,0,0,0,.362-1.248A1.53,1.53,0,0,0,37.175,34.009Z" style="fill:#d6e0eb"/><path d="M32.716,10.511a1.056,1.056,0,0,0-.6-.494,1.314,1.314,0,0,0-1,.373,1.617,1.617,0,0,0,.888.394A1.378,1.378,0,0,0,32.716,10.511Z" style="fill:#d6e0eb"/><path d="M26.825,34.009c-.879-.434-2.8.819-3.555.2s.01-2.819-.595-3.595-2.867-.492-3.291-1.392,1.2-2.523.987-3.5C20.16,24.77,18,24.016,18,23s2.16-1.77,2.371-2.72c.218-.982-1.4-2.619-.987-3.5s2.689-.619,3.291-1.392c.373-.478.226-1.493.234-2.348-.932-.163-2.091-.7-2.638-.248-.759.62.01,2.819-.6,3.6s-2.867.492-3.291,1.392,1.2,2.522.987,3.5C17.16,22.23,15,22.984,15,24s2.16,1.77,2.371,2.72c.217.981-1.4,2.618-.987,3.5s2.688.619,3.291,1.392c.382.491.218,1.548.235,2.417a1.54,1.54,0,0,0,.36,1.178c.479.392,1.426.032,2.28-.174a2.015,2.015,0,0,1,1.275-.028,1.28,1.28,0,0,1,.459.479c.528.824.838,2.318,1.6,2.495.714.167,1.584-.96,2.4-1.494A4.189,4.189,0,0,1,28,35.975C27.641,35.214,27.346,34.267,26.825,34.009Z" style="fill:#c1cfe8"/><path d="M33.372,36A2.521,2.521,0,0,0,32,35.216,2.521,2.521,0,0,0,30.628,36c-.249.215-.5.429-.74.61.765.566,1.564,1.528,2.227,1.374.61-.142.928-1.133,1.3-1.946Z" style="fill:#c1cfe8"/><path d="M36,52a10.918,10.918,0,0,1,1.212-5H34.794a10.948,10.948,0,0,0-.007,12h3.728A10.955,10.955,0,0,1,36,52Z" style="fill:#2b2b37"/><path d="M38.524,45A11,11,0,0,1,45,41.19V41H42v1.19A10.98,10.98,0,0,0,36.471,45h2.053Z" style="fill:#5c6979"/><path d="M38,45H36.471a11.047,11.047,0,0,0-1.677,2h2.418a10.95,10.95,0,0,1,1.312-2Z" style="fill:#2b2b37"/><path d="M45,38h-.5A1.5,1.5,0,0,1,43,36.5a1.483,1.483,0,0,1,.092-.5H41.5a1.5,1.5,0,0,0,0,3H42v2h3Z" style="fill:#c1cfe8"/><circle cx="47" cy="52" r="11" style="fill:#febd55"/><rect x="43" y="35" width="8" height="3" rx="1.5" style="fill:#f7594e"/><path d="M49,41.19V38H45v3.19a10.621,10.621,0,0,1,4,0Z" style="fill:#2b2b37"/><path d="M39,47a11.005,11.005,0,0,1,.412-2.951,10.993,10.993,0,1,0,18.176,10.9A10.99,10.99,0,0,1,39,47Z" style="fill:#fc9e20"/><path d="M47,41V52H58A11,11,0,0,0,47,41Z" style="fill:#cb3541"/><path d="M59,4H5A5.006,5.006,0,0,0,0,9V43a5.006,5.006,0,0,0,5,5H25v4.375a1,1,0,0,1-.8.979l-4.537.948A4.835,4.835,0,0,0,16,59a1,1,0,0,0,1,1H36V58H18.18a2.812,2.812,0,0,1,1.934-1.749l4.5-.939A3.015,3.015,0,0,0,27,52.375V48h8V46H5a3,3,0,0,1-3-3V42H31V40H2V9A3,3,0,0,1,5,6H59a3,3,0,0,1,3,3V43a3,3,0,0,1-3,3v2a5.006,5.006,0,0,0,5-5V9A5.006,5.006,0,0,0,59,4Z"/><rect x="33" y="40" width="2" height="2"/><path d="M57,43.414l1.293,1.293,1.414-1.414-4-4-1.414,1.414L55.586,42l-.845.845A11.965,11.965,0,0,0,50,40.4V38.949A2.5,2.5,0,0,0,49.5,34h-5a2.5,2.5,0,0,0-.5,4.949V40.4a12,12,0,1,0,12.155,3.864ZM44.5,36h5a.5.5,0,0,1,0,1h-5a.5.5,0,0,1,0-1ZM46,39h2v1.051c-.331-.028-.662-.051-1-.051s-.669.023-1,.051Zm1,23A10,10,0,1,1,57,52,10.011,10.011,0,0,1,47,62Z"/><path d="M48,44H46v8a1,1,0,0,0,1,1h5V51H48Z"/><path d="M22.637,34.986c.793.648,1.864.361,2.726.131a9.579,9.579,0,0,1,.98-.234h0a4.268,4.268,0,0,1,.505.968c.379.878.808,1.874,1.807,2.107a2.954,2.954,0,0,0,2.488-1.083,6.93,6.93,0,0,1,.821-.662,4,4,0,0,1,.89.662A3.47,3.47,0,0,0,34.959,38a1.713,1.713,0,0,0,.383-.044c1-.233,1.429-1.229,1.807-2.107a10.011,10.011,0,0,1,.432-.931,3.852,3.852,0,0,1,1.056.2c.861.23,1.932.516,2.725-.132a3.09,3.09,0,0,0,.718-2.659,7.149,7.149,0,0,1,.008-1.069,3.966,3.966,0,0,1,1.028-.286c.875-.174,1.965-.39,2.4-1.321a3.076,3.076,0,0,0-.479-2.689,6.265,6.265,0,0,1-.446-.99,4.009,4.009,0,0,1,.8-.71C46.109,24.715,47,24.035,47,23s-.891-1.714-1.6-2.261a6.5,6.5,0,0,1-.786-.653,4.088,4.088,0,0,1,.433-1.048,3.077,3.077,0,0,0,.479-2.688c-.439-.931-1.529-1.147-2.4-1.321a7.361,7.361,0,0,1-.985-.233,4.1,4.1,0,0,1-.051-1.123,3.091,3.091,0,0,0-.718-2.659,2.985,2.985,0,0,0-2.726-.131,9.579,9.579,0,0,1-.98.234h0a4.268,4.268,0,0,1-.505-.968c-.379-.878-.808-1.874-1.807-2.107a2.947,2.947,0,0,0-2.488,1.083,6.93,6.93,0,0,1-.821.662,4,4,0,0,1-.89-.662c-.7-.614-1.5-1.313-2.486-1.083-1,.233-1.429,1.229-1.807,2.107a10.011,10.011,0,0,1-.432.931,3.852,3.852,0,0,1-1.056-.2,2.983,2.983,0,0,0-2.725.132,3.09,3.09,0,0,0-.718,2.659,7.149,7.149,0,0,1-.008,1.069,3.966,3.966,0,0,1-1.028.286c-.875.174-1.965.39-2.4,1.321a3.076,3.076,0,0,0,.479,2.689,6.265,6.265,0,0,1,.446.99,4.009,4.009,0,0,1-.8.71C17.891,21.285,17,21.965,17,23s.891,1.714,1.605,2.261a6.5,6.5,0,0,1,.786.653,4.088,4.088,0,0,1-.433,1.048,3.077,3.077,0,0,0-.479,2.688c.439.931,1.529,1.147,2.4,1.321a7.361,7.361,0,0,1,.985.233,4.1,4.1,0,0,1,.051,1.123A3.091,3.091,0,0,0,22.637,34.986Zm-1.365-5.977a6.018,6.018,0,0,1-.937-.235,6.357,6.357,0,0,1,.4-.905,3.687,3.687,0,0,0,.607-2.366,3.488,3.488,0,0,0-1.527-1.832A5.554,5.554,0,0,1,19.037,23a5.622,5.622,0,0,1,.783-.672A3.485,3.485,0,0,0,21.348,20.5a3.687,3.687,0,0,0-.607-2.366,6.266,6.266,0,0,1-.406-.906,6,6,0,0,1,.938-.235A3.494,3.494,0,0,0,23.465,16a3.6,3.6,0,0,0,.454-2.389,6.631,6.631,0,0,1,.017-.995,6.644,6.644,0,0,1,.911.2,3.486,3.486,0,0,0,2.421.073,3.5,3.5,0,0,0,1.419-1.946,7,7,0,0,1,.428-.88,7.076,7.076,0,0,1,.715.572A3.548,3.548,0,0,0,32,11.784a3.545,3.545,0,0,0,2.17-1.151,7.337,7.337,0,0,1,.715-.572,6.732,6.732,0,0,1,.428.88,3.52,3.52,0,0,0,1.419,1.947,3.48,3.48,0,0,0,2.421-.073,6.7,6.7,0,0,1,.912-.2,6.644,6.644,0,0,1,.017,1A3.6,3.6,0,0,0,40.536,16a3.492,3.492,0,0,0,2.192.992,6.018,6.018,0,0,1,.937.235,6.357,6.357,0,0,1-.405.905,3.687,3.687,0,0,0-.607,2.366,3.488,3.488,0,0,0,1.527,1.832,5.554,5.554,0,0,1,.783.671,5.622,5.622,0,0,1-.783.672A3.485,3.485,0,0,0,42.652,25.5a3.687,3.687,0,0,0,.607,2.366,6.266,6.266,0,0,1,.406.906,6,6,0,0,1-.938.235A3.494,3.494,0,0,0,40.535,30a3.6,3.6,0,0,0-.454,2.389,6.631,6.631,0,0,1-.017.995,6.644,6.644,0,0,1-.911-.2,3.464,3.464,0,0,0-2.421-.073,3.511,3.511,0,0,0-1.42,1.946,6.861,6.861,0,0,1-.427.88,7.076,7.076,0,0,1-.715-.572A3.548,3.548,0,0,0,32,34.216a3.545,3.545,0,0,0-2.17,1.151,7.337,7.337,0,0,1-.715.572,6.732,6.732,0,0,1-.428-.88,3.52,3.52,0,0,0-1.419-1.947,2.031,2.031,0,0,0-.91-.2,6.007,6.007,0,0,0-1.511.268,6.7,6.7,0,0,1-.912.2,6.644,6.644,0,0,1-.017-1A3.6,3.6,0,0,0,23.464,30,3.492,3.492,0,0,0,21.272,29.009Z"/><rect x="23.515" y="22" width="16.971" height="2" transform="translate(-6.891 29.364) rotate(-45)"/><path d="M35,25a3,3,0,1,0,3,3A3,3,0,0,0,35,25Zm0,4a1,1,0,1,1,1-1A1,1,0,0,1,35,29Z"/><path d="M29,21a3,3,0,1,0-3-3A3,3,0,0,0,29,21Zm0-4a1,1,0,1,1-1,1A1,1,0,0,1,29,17Z"/></g></svg>